<?xml version="1.0" encoding="utf-8"?>
<!-- Designed by Vexels.com - 2020 All Rights Reserved - https://vexels.com/terms-and-conditions/  -->
<svg version="1.1" id="Capa_1" xmlns="http://www.w3.org/2000/svg" xmlns:xlink="http://www.w3.org/1999/xlink" x="0px" y="0px"
	 viewBox="0 0 1200 1200" enable-background="new 0 0 1200 1200" xml:space="preserve">
<g>
	<path fill="#2E45CE" d="M631.368,491.416c12.888,0,23.374-10.485,23.374-23.373c0-12.888-10.486-23.373-23.374-23.373
		c-12.888,0-23.375,10.485-23.375,23.373C607.993,480.932,618.479,491.416,631.368,491.416z M631.368,451.132
		c9.326,0,16.909,7.587,16.909,16.911s-7.583,16.911-16.909,16.911c-9.326,0-16.909-7.587-16.909-16.911
		S622.042,451.132,631.368,451.132z"/>
	<path fill="#2E45CE" d="M1019.364,1009.274c-0.519-10.488-13.946-18.407-25.858-25.409c-5.357-3.152-10.42-6.128-13.26-8.768
		c-26.726-24.297-44.6-34.66-56.25-32.606c-1.291,0.227-2.471,0.509-3.597,0.815c-0.818-6.845,1.009-13.882,5.175-19.379
		c6.051-7.98,14.255-15.686,22.943-23.848c13.021-12.232,26.488-24.882,35.435-40.729c17.856-31.645-6.269-54.396-16.573-64.111
		c-0.382-0.365-0.33-0.947-0.291-1.182c5.085-29.617-97.81-115.886-110.948-126.761c-5.624-8.533-12.558-15.675-19.542-21.673
		c-0.011-0.007-0.018-0.019-0.03-0.026c-8.548-7.336-17.143-12.958-23.432-17.022l-2.16-1.399c-0.663-0.431-0.996-1.238-0.827-2.005
		c5.925-27.1-5.343-33.167-24.013-43.22c-3.506-1.888-7.342-3.953-11.468-6.37c-23.688-13.869-38.403-38.081-40.667-41.978
		c-2.174-35.448-11.633-54.962-21.978-73.397c-4.747-8.456-4.845-15.663-4.993-26.57c-0.144-10.439-0.319-23.429-4.383-43.176
		c-5.031-24.467-7.313-42.31-8.341-52.823c0.305,0.44,0.614,0.891,0.933,1.352c1.357,1.972,2.892,4.192,4.567,6.505
		c0.008,0.009,0.013,0.02,0.021,0.029c3.461,4.777,7.579,9.983,12.333,14.492c2.181,2.435,42.333,47.032,62.577,56.816
		c1.353,0.652,2.773,1.033,4.34,1.159c1.01,0.082,2.405,0.128,4.158,0.128c23.602-0.002,111.165-8.104,172.975-39.637
		c21.678-1.718,36.845-8.684,45.778-14.255c6.798-4.235,11.212-11.182,12.113-19.06c2.391-21.013-4.176-34.325-8.306-40.393
		c-1.935-2.842-4.884-4.758-8.306-5.397c-3.513-0.664-7.201,0.133-10.15,2.158c-22.603,15.533-38.247,20.94-45.294,22.752
		c0.677-4.509,1.658-11.309,2.184-16.063c0.326-2.959-0.736-5.83-2.913-7.878c-2.146-2.011-5.024-2.875-7.885-2.377
		c-5.624,0.982-12.835,6.093-14.648,17.272c-0.968,5.96-3.407,13.442-5.78,19.84c-10.245,4.44-38.899,10.512-72.355,10.512
		c-0.578,0.002-1.164-0.002-1.728-0.002c-13.087,0-22.787,0.777-29.585,1.651c-16.076-19.602-27.427-32.458-31.123-36.592
		c0.524-2.456-0.142-5.103-1.905-7.022c-63.564-69.089-85.29-90.542-96.85-95.645l-0.498-0.174
		c-36.673-9.466-115.979-10.2-125.318-10.254c-11.801-6.216-22.614-8.905-27.522-9.885c-0.85-23.349-5.282-44.943-7.915-52.803
		c-0.752-6.298-12.235-89.748-86.712-84.636c-30.302,2.076-53.817,17.812-66.214,44.312c-12.788,27.341-11.5,62.089,2.779,83.965
		c-4.903,6.01-4.294,16.506,1.576,25.718c6.072,9.531,18.641,17.97,36.042,14.063c2.901,4.55,10.609,15.525,22.964,25.584
		c-2.716,4.208-8.275,13.504-12.692,25.13c-2.267,3.282-27.128,38.933-55.286,66.544l-0.743,0.749
		c-4.684,4.642-15.654,15.514-8.467,56.79c4.33,24.852,9.827,52.472,14.68,76.839c3.35,16.843,6.518,32.75,8.868,45.58
		c-2.942,6.047-19.471,40.648-53.176,122.639c-1.252,3.58-4.737,11.142-8.425,19.15c-3.443,7.468-7.001,15.191-9.655,21.628
		c-2.64,7.654-19.315,28.886-27.908,38.622c-1.522,1.728-2.563,3.79-3.005,5.974c-0.692,3.421-1.409,10.055,0.398,18.846
		c-5.064-0.479-10.374-0.381-15.919,0.482c-17.744,2.759-35.467,12.229-49.901,26.66c-30.06,30.06-36.371,72.665-14.066,94.97
		c8.804,8.804,20.885,13.421,34.709,13.421c3.355,0,6.819-0.273,10.36-0.824c17.744-2.763,35.467-12.232,49.897-26.663
		c14.431-14.434,23.9-32.153,26.663-49.901c1.642-10.551,0.738-20.346-2.403-28.881c1.489,1.101,3.262,1.71,5.135,1.71
		c0.442,0,0.891-0.035,1.336-0.102c2.913-0.428,5.459-2.247,6.809-4.859c3.476-6.729,7.505-16.404,10.791-26.372l21.299-21.292
		c4.824-4.824,4.926-12.478,0.228-17.428c-2.349-2.472-5.522-3.853-8.93-3.888c-2.217,0.019-4.372,0.626-6.291,1.706
		c0.188-5.049,0.858-6.87,1.827-9.048c0.954-2.132,2.303-4.134,4.018-5.953c45.038-47.836,93.905-128.482,101.895-146.5
		c7.498-16.896,1.664-55.12,1.025-59.117c0.002-1.463-0.053-8.611-1.159-17.666c4.879,3.497,10.195,6.851,15.918,9.736
		c-1.066,10.543,6.851,32.362,16.114,50.211c10.108,19.482,6.425,48.266,5.786,52.657c-3.034,4.988-20.72,37.211-0.544,79.866
		c-4.007,7.206-19.891,39.889-16.71,100.483c-1.234,1.045-3.019,2.433-5.136,4.081c-17.909,13.926-65.474,50.921-75.232,113.955
		c-10.692,69.04-22.079,103.622-22.549,105.035c-5.3,12.883-22.645,56.785-30.337,77.461c-4.557,2.37-18.65,11.863-21.961,39.938
		c-2.104,17.821-3.58,31.67-4.446,40.147c-0.009,0.083,0.008,0.166,0.001,0.249c-0.002,0.063-0.002,0.124,0.001,0.188
		c-0.219,3.323,0.878,6.614,3.115,9.092c2.345,2.594,5.697,4.084,9.203,4.084h66.495c3.674,0,7.135-1.613,9.494-4.425
		c2.353-2.801,3.334-6.472,2.703-10.073c-1.571-8.926-3.46-21.793-3.555-32.388c-0.039-3.972,0.021-7.419,0.074-10.441
		c0.179-10.483,0.235-16.674-4.169-22.106c16.811-48.533,35.666-76.086,36.645-77.491c71.385-79.106,80.947-141.24,82.009-150.51
		c4.821-5.378,34.285-37.784,65.934-62.894c2.633-2.089,5.087-4.218,7.453-6.362c2.743,0.736,8.224,1.972,14.207,1.972
		c5.47,0,11.317-1.066,15.814-4.471c0.826-0.346,1.536-0.967,1.93-1.854c6.241-13.999,16.247-32.82,31.067-34.601
		c10.714-1.308,22.971,6.749,36.27,23.921c0.8,1.038,1.87,1.786,3.057,2.259c0.009,0.005,0.015,0.015,0.025,0.019
		c0.393,0.196,7.261,3.545,17.26,3.545c3.339,0,7.043-0.413,10.955-1.401c18.336,19.892,61.144,53.998,155.093,84.776
		c-3.873,10.777-6.536,37.062-7.517,57.462c-0.002,0.024-0.003,0.046-0.003,0.07c-0.092,1.925-0.174,3.814-0.236,5.615
		c-0.291,8.534-2.745,16.815-7.093,23.942c-4.06,6.658-8.39,12.401-8.849,13.011c-0.032,0.035-0.06,0.074-0.088,0.112l-1.062,1.388
		l0.231,0.586c-8.537,25.013-7.457,46.237-7.15,50.289c-1.284,3.31-1.218,6.977,0.328,10.228c1.714,3.608,4.922,6.22,8.804,7.173
		c54.693,13.41,92.348,16.808,116.459,16.808c17.264,0,27.585-1.742,32.238-2.798c10.385-2.359,17.095-6.423,19.946-12.085
		C1020.827,1014.74,1019.87,1010.763,1019.364,1009.274z M944.092,895.37c-8.447,7.934-16.391,15.463-22.638,23.406
		c-30.143,1.159-46.129-11.447-49.918-14.92c1.097-22.109,3.609-40.554,5.801-49.897c6.761,12.658,24.516,37.201,60.522,37.201
		c3.659,0,7.525-0.28,11.57-0.826C947.649,892.023,945.868,893.703,944.092,895.37z M957.716,882.233
		c-38.135,8.944-59.021-8.313-69.264-22.356c3.346,2.651,7.074,5.401,10.932,7.869c9.512,6.086,24.486,11.366,40.315,11.366
		c8.704,0,17.652-1.661,26.103-5.6C963.212,876.496,960.509,879.402,957.716,882.233z M829.518,648.086
		c-14.679,9.902-30.27,17.89-36.616,21.014c-0.403,0.2-0.859,0.137-1.199-0.172c-1.497-1.325-3.566-3.204-5.49-5.112
		c-0.34-0.337-0.34-0.729-0.312-0.933c0.028-0.207,0.14-0.589,0.565-0.824c16.111-8.881,29.817-17.328,34.636-20.34
		C823.833,643.661,826.649,645.754,829.518,648.086z M794.579,353.704c0.438,1.373,1.711,2.247,3.082,2.247
		c0.323,0,0.652-0.049,0.975-0.151c0.123-0.039,12.183-3.753,40.301-3.753c0.578-0.002,1.157,0.005,1.728,0.004
		c29.768,0,55.48-4.615,69.208-8.964c-1.406,3.42-2.414,5.668-2.444,5.735c-0.733,1.627-0.01,3.541,1.616,4.276
		c1.637,0.74,3.541,0.007,4.274-1.615c0.389-0.864,9.596-21.339,11.847-35.212c1.185-7.326,5.564-11.275,9.379-11.94
		c1.146-0.196,1.967,0.366,2.349,0.722c0.684,0.642,1.017,1.537,0.915,2.458c-0.652,5.922-2.047,15.169-2.615,18.869
		c-0.214,1.392,0.259,2.808,1.266,3.785c1.003,0.969,2.416,1.404,3.79,1.141c4.887-0.913,22.992-5.373,50.753-24.451
		c1.543-1.061,3.467-1.474,5.301-1.132c1.718,0.323,3.194,1.276,4.155,2.684c2.917,4.286,9.459,16.377,7.222,36.024
		c-0.673,5.906-3.993,11.121-9.109,14.308c-6.882,4.291-21.688,11.731-43.492,13.346l-0.656,0.047l-0.582,0.302
		c-65.226,33.517-159.887,40.301-174.241,39.113c-0.757-0.061-1.43-0.238-2.051-0.538c-15.235-7.362-44.117-37.514-55.666-49.953
		c29.779-13.887,46.383-34.462,53.055-44.368c4.46,5.029,14.005,15.956,26.999,31.719c-3.382,0.654-5.092,1.182-5.276,1.242
		C794.968,350.193,794.039,352.007,794.579,353.704z M771.737,309.699c-4.162,6.947-20.317,30.791-53.508,45.951
		c-0.501,0.228-1.129,0.144-1.501-0.205c-3.506-3.309-6.616-7.014-9.418-10.691c9.851-4.691,36.602-19.293,54.935-46.858
		c3.019,3.271,6.108,6.624,9.307,10.1C771.982,308.465,772.06,309.164,771.737,309.699z M502.193,321.518l4.516,17.87l-9.354-14.943
		c-1.525-2.437-4.284-3.781-7.026-3.418c-7.864,1.024-16.019-1.6-22.996-7.399c-19.103-15.872-27.234-48.773-30.008-63.416
		c11.995,7.774,27.215,13.797,45.588,13.797c1.22,0,2.451-0.026,3.695-0.081c11.724-0.508,21.047-5.736,27.711-15.537
		c2.186-3.215,3.997-6.844,5.512-10.752c5.633,49.273-6.858,69.111-15.375,76.726C502.407,316.199,501.537,318.939,502.193,321.518z
		 M416.324,295.018c1.231-16.862,9.496-33.578,14.782-42.732c3.017,15.81,11.578,49.266,32.096,66.313
		c2.388,1.985,4.914,3.621,7.512,4.97c-20.938,5.57-35.392,19.906-41.387,29.138c-0.249,0.384-0.614,0.433-0.869,0.408
		c-0.228-0.023-0.638-0.131-0.827-0.612C416.78,325.39,415.987,306.629,416.324,295.018z M524.124,221.889
		c1.581-8.786,2.191-18.218,2.142-27.569c7.28,1.63,23.807,6.364,38.231,17.996c3.148,2.538,5.227,6.125,5.859,10.097
		c1.949,12.325,1.532,29.95-1.118,47.143c-0.053,0.337-0.34,0.596-0.687,0.619c-12.893,0.821-27.103,4.165-44.228,20.486
		C528.179,275.395,529.417,253.4,524.124,221.889z M371.135,97.276C382.491,73,404.084,58.58,431.936,56.673
		c54.469-3.714,72.194,43.083,77.634,66.459c-3.706-3.925-8.16-7.777-13.012-10.757c-1.665-1.022-3.618-1.313-5.515-0.801
		c-1.911,0.51-3.555,1.809-4.512,3.566c-19.746,36.243-51.436,27.65-68.469,23.038l-2.111-0.57
		c-2.114-0.556-4.358-0.116-6.118,1.232c-1.767,1.359-2.784,3.413-2.787,5.641c-0.018,23.573-8.916,34.771-13.161,38.771
		c-3.138-3.539-9.238-9.301-15.907-9.563c-1.664-0.048-3.254,0.286-4.758,0.904C360.536,154.714,359.503,122.137,371.135,97.276z
		 M410.024,213.005l-1.245-2.244l-2.465,0.696c-19.195,5.431-28.753-6.823-31.231-10.709c-4.295-6.74-5.126-14.611-1.935-18.31
		c1.844-2.139,3.52-2.335,4.572-2.291c5.105,0.193,11.184,6.958,13.095,9.547l1.778,2.41l2.538-1.588
		c0.75-0.468,18.354-11.882,18.382-46.028c0-0.28,0.161-0.447,0.259-0.522c0.112-0.086,0.305-0.172,0.522-0.112l2.079,0.561
		c17.414,4.723,53.656,14.545,75.831-26.185c0.112-0.207,0.298-0.358,0.505-0.414c0.27-0.068,0.414,0.035,0.47,0.067
		c8.369,5.14,15.609,13.393,18.901,19.015c3.336,9.994,11.482,52.135,5.717,83.996c-0.066,0.207-0.089,0.418-0.112,0.638
		c-1.666,8.88-4.43,16.935-8.708,23.228c-5.532,8.134-12.941,12.292-22.649,12.715C436.329,259.593,410.283,213.472,410.024,213.005
		z M445.241,479.549c-23.651,27.799-54.97,32.311-64.205,33.04c-0.976-5.286-2.086-11.073-3.276-17.18
		c9.056-0.134,37.196-2.743,66.841-27.403C445.091,473.346,445.214,477.613,445.241,479.549z M283.738,845.834
		c-13.467,13.474-29.92,22.295-46.321,24.847c-16.05,2.493-30.06-1.336-39.502-10.781c-19.788-19.784-13.477-58.287,14.066-85.827
		c13.47-13.47,29.92-22.295,46.321-24.847c16.047-2.5,30.06,1.339,39.502,10.784C317.588,779.795,311.281,818.294,283.738,845.834z
		 M307.592,761.902c-1.55-2.291-3.24-4.486-5.217-6.464c-0.812-0.812-1.707-1.515-2.573-2.255l7.264-7.348
		c0.524,5.346,0.808,11.783,0.929,15.664L307.592,761.902z M349.17,705.854c1.644,0.018,3.176,0.684,4.309,1.876
		c2.265,2.388,2.216,6.079-0.112,8.407l-12.998,12.993c1.745-7.099,2.804-13.756,2.634-18.922c-0.008-0.246-0.012-0.464-0.02-0.702
		l1.84-1.864C345.98,706.474,347.606,705.885,349.17,705.854z M444.782,536.979c-7.881,17.765-56.145,97.37-100.696,144.687
		c-2.212,2.349-3.965,4.958-5.213,7.752c-1.911,4.288-2.763,7.755-2.328,21.001c0.238,7.23-2.282,18.012-5.734,28.623
		c-0.005,0.012-0.007,0.023-0.012,0.035c-3.241,9.958-7.3,19.763-10.693,26.33c-0.396,0.771-1.146,1.308-2.009,1.434
		c-0.445,0.06-1.297,0.074-1.995-0.649c-0.505-0.522-0.929-1.055-1.259-1.581c-0.21-0.333-0.323-0.729-0.333-1.178
		c0-0.017-0.005-0.25-0.014-0.623c0-0.008-0.001-0.015-0.001-0.023c-0.074-2.951-0.461-15.559-1.65-22.802
		c-0.252-1.515-1.315-2.749-2.777-3.215c-1.473-0.466-3.043-0.081-4.127,1.017l-11.394,11.525c-4.35-2.712-9.193-4.662-14.424-5.855
		c-2.256-8.882-1.607-15.454-0.961-18.66c0.221-1.087,0.733-2.09,1.518-2.98c4.919-5.575,25.569-30.348,29.103-40.613
		c2.535-6.135,6.069-13.8,9.484-21.211c3.92-8.506,7.303-15.851,8.593-19.56c32.399-78.799,48.851-113.623,52.573-121.332
		c8.336-0.548,40.313-4.402,65.801-31.042C447.732,500.164,449.984,525.247,444.782,536.979z M488.319,519.785
		c-12.579-24.242-16.888-43.381-15.163-47.88l1.073-2.796l-2.707-1.281c-27.175-12.871-46.598-38.156-46.791-38.41
		c-1.076-1.418-3.11-1.704-4.526-0.617c-1.423,1.078-1.7,3.105-0.621,4.524c0.546,0.72,9.389,12.232,23.608,23.865
		c0.177,1.035,0.348,2.064,0.495,3.073c-30.624,27.14-60.769,28.688-67.195,28.677c-1.281-6.51-2.633-13.308-4.021-20.282
		c-4.845-24.333-10.336-51.912-14.652-76.687c-6.609-37.954,2.682-47.159,6.647-51.091c0.333-0.33,0.635-0.628,0.806-0.815
		c18.291-17.93,35.215-39.232,45.613-53.087c-0.452,2.545-0.824,5.114-1.013,7.709c-0.365,12.329,0.459,31.983,11.759,60.219
		c1.038,2.589,3.411,4.367,6.195,4.638c0.245,0.025,0.491,0.037,0.736,0.037c2.489,0,4.81-1.243,6.185-3.353
		c6.819-10.504,25.709-28.337,53.249-28.542c0.046,0,0.082-0.025,0.127-0.027c1.014-0.036,2.029-0.092,3.039-0.224
		c0.231-0.06,0.533,0.151,0.712,0.436l16.355,26.121c0.827,1.32,2.237,2.062,3.706,2.062c0.589,0,1.189-0.119,1.764-0.37
		c2.002-0.869,3.05-3.036,2.5-5.115l-7.745-30.637c-0.07-0.284,0.112-0.573,0.309-0.749c3.005-2.686,6.462-6.717,9.593-12.624
		c20.614-24.783,36.505-29.039,50.605-29.936c3.348-0.212,6.153-2.77,6.665-6.081c2.745-17.821,3.159-36.191,1.111-49.142
		c-0.88-5.557-3.786-10.571-8.183-14.117c-1.365-1.101-2.745-2.134-4.131-3.122c24.889,0.474,83.431,2.367,112.659,9.831
		c10.721,4.934,35.131,29.792,80.633,79.003c-18.035,27.951-46.132,42.606-54.301,46.429c-0.99-1.407-1.957-2.802-2.852-4.103
		c-2.503-3.639-4.481-6.516-6.227-8.358c-1.196-1.266-3.075-1.646-4.663-0.959c-1.609,0.699-2.58,2.286-2.472,4.048
		c0.484,7.58,2.342,28.767,9.116,61.706c3.941,19.148,4.113,31.798,4.253,41.963c0.154,11.47,0.266,19.756,5.816,29.645
		c9.862,17.569,18.894,36.133,21.106,69.552c-0.729,0.494-1.532,1.047-2.409,1.648c-18.778,12.883-68.767,47.115-146.172,43.746
		c-47.04-2.04-74.65-3.999-83.779-4.696C496.239,564.336,498.122,538.677,488.319,519.785z M373.694,982.473
		c5.435-1.923,28.773-8.513,50.882,9.275c-5.138,7.861-21.143,34.097-35.921,76.818c-17.583,4.368-32.168,0.845-44.463-10.756
		C351.792,1037.447,368.011,996.376,373.694,982.473z M339.889,1062.55c10.077,9.456,21.772,14.266,34.973,14.266
		c4.849,0,9.909-0.679,15.151-1.963c2.604,3.401,2.686,7.553,2.512,17.712c-0.053,3.071-0.112,6.57-0.077,10.606
		c0.085,9.254,1.465,20.029,2.856,28.682c-34.348-11.529-65.124-3.846-76.885,0.047c0.888-8.478,2.18-20.329,3.899-34.903
		C325.076,1073.618,335.689,1065.063,339.889,1062.55z M390.271,1143.535h-66.495c-1.704,0-3.268-0.691-4.407-1.949
		c-0.702-0.778-1.14-1.705-1.353-2.691c8.458-3.042,41.762-13.183,78.008,0.066c-0.205,0.893-0.601,1.739-1.206,2.46
		C393.689,1142.767,392.031,1143.535,390.271,1143.535z M575.387,774.61c-34.888,27.683-67.126,64.083-67.448,64.447l-0.712,0.806
		l-0.088,1.069c-0.049,0.642-5.995,64.272-78.541,145.66c-20.542-16.534-42.135-14.133-52.464-11.573
		c3.741-12.755,12.604-46.006,21.001-100.226c9.365-60.496,53.824-95.076,72.813-109.843c3.11-2.419,5.357-4.169,6.724-5.483
		l1.066-1.031l-0.084-1.483c-3.584-62.396,13.955-95.281,16.289-99.352c1.022-0.801,2.173-1.728,3.499-2.803
		c16.531-13.414,55.251-44.835,83.362-10.595c3.871,4.716,7.555,8.989,11.009,12.993c16.251,18.851,27.151,31.514,27.833,57.07
		C618.132,718.749,606.813,749.672,575.387,774.61z M592.468,767.968c12.642-12.7,20.975-25.574,26.164-35.404
		c-1.169,9.579-3.338,20.663-6.668,33.814C606.648,769.575,598.387,769.065,592.468,767.968z M649.104,727.941
		c-11.219,1.35-19.805,9.862-26.348,19.816c2.479-13.049,3.519-23.825,3.348-33.061c0.005-0.198,0.021-0.39-0.01-0.582
		c-0.672-27.819-12.49-41.532-29.388-61.134c-3.422-3.969-7.075-8.204-10.911-12.878c-32.196-39.202-75.954-3.688-92.429,9.68
		c-0.245,0.196-0.484,0.393-0.719,0.582c-16.1-36.16-3.246-63.6,0.563-70.416c7.343,0.578,35.4,2.651,85.418,4.819
		c3.706,0.161,7.349,0.238,10.928,0.238c73.426,0,120.81-32.508,139.177-45.11c0.382-0.263,0.708-0.484,1.061-0.726
		c4.838,7.834,19.261,28.904,41.603,41.988c4.2,2.458,8.106,4.561,11.672,6.481c18.14,9.769,25.646,13.812,20.766,36.15
		c-0.74,3.373,0.712,6.91,3.611,8.8l2.181,1.413c1.714,1.108,3.651,2.375,5.668,3.718c-6.068,3.75-18.106,11.051-31.953,18.682
		c-2.111,1.164-3.513,3.204-3.846,5.592c-0.333,2.381,0.456,4.719,2.163,6.412c2.023,2.002,4.19,3.972,5.753,5.357
		c1.42,1.262,3.204,1.914,5.01,1.914c1.129,0,2.268-0.256,3.331-0.778c6.683-3.29,23.421-11.873,38.861-22.465
		c5.311,4.782,10.483,10.268,14.868,16.526c-10.101,8.306-34.993,23.476-74.559,35.663c-46.802,14.42-75,41.739-82.528,49.764
		c-0.193,0.207-0.354,0.228-0.582,0.238c-0.158-0.007-0.382-0.067-0.561-0.298C676.469,735.227,662.269,726.329,649.104,727.941z
		 M698.983,756.871c1.934-1.962,4.608-4.525,7.989-7.476c1.211,1.923,3.034,4.542,5.634,7.743
		C707.265,757.998,702.552,757.579,698.983,756.871z M712.008,745.177c13.636-11.022,35.374-25.305,64.82-34.377
		c46.602-14.357,69.938-31.289,76.969-37.049c45.599,37.942,110.274,99.705,106.924,119.209c-0.452,2.63,0.379,5.238,2.226,6.98
		c15.206,14.336,28.921,32.231,15.374,56.233c-0.249,0.441-0.538,0.858-0.796,1.295c-21.997,22.192-56.844,16.239-74.657,4.837
		c-12.159-7.776-23.459-18.925-23.571-19.038c-0.181-0.181-0.417-0.296-0.633-0.428c-0.211-0.128-0.413-0.274-0.65-0.351
		C753.59,802.392,718.52,755.605,712.008,745.177z M863.205,937.933c4.744-7.779,7.47-16.754,7.962-26.018
		c7.297,5.351,22.244,13.423,46.028,13.443c-3.066,6.25-4.13,13.401-2.958,20.321c-6.174,3.264-8.865,7.957-11.144,11.965
		c-3.176,5.585-5.683,9.996-17.022,10.805c-19.339,1.332-28.483-13.456-30.975-18.456
		C856.778,947.697,860.032,943.132,863.205,937.933z M852.193,957.623c5.189,7.58,15.959,18.603,34.341,17.271
		c14.781-1.055,18.711-7.962,22.175-14.052c3.085-5.424,5.75-10.108,16.408-11.984c6.384-1.167,20.352,3.355,50.753,30.997
		c3.331,3.096,8.688,6.248,14.361,9.582c8.081,4.747,17.73,10.42,21.302,16.128c-7.727-1.262-22.863-1.956-43.362,5.603
		c-32.388,11.959-107.445-9.242-121.044-13.263C846.885,992.314,846.811,976.366,852.193,957.623z M1012.771,1016.369
		c-1.336,2.654-5.126,6.314-15.605,8.691c-10.802,2.454-53.235,8.691-145.727-13.982c-1.988-0.487-3.632-1.827-4.509-3.671
		c-0.452-0.953-0.645-1.974-0.614-2.996c12.758,3.773,59.502,16.82,95.795,16.82c10.728,0,20.549-1.143,28.297-4
		c22.739-8.394,38.305-5.826,43.083-4.664C1013.586,1013.513,1013.524,1014.874,1012.771,1016.369z"/>
	<path fill="#2E45CE" d="M526.769,336.245c3.328,0,6.025-2.698,6.025-6.026s-2.697-6.026-6.025-6.026s-6.026,2.698-6.026,6.026
		S523.441,336.245,526.769,336.245z"/>
</g>
</svg>
